<svg xmlns="http://www.w3.org/2000/svg" xmlns:xlink="http://www.w3.org/1999/xlink" viewBox="0 0 373.68 312.05">
    <defs>
        <style>.cls-1{isolation:isolate;}.cls-2{fill:url(#Dégradé_sans_nom_28);}.cls-3{opacity:0.35;mix-blend-mode:multiply;}.cls-4{fill:#030303;}.cls-5{fill:url(#Dégradé_sans_nom_27);}.cls-6{fill:#fff;}.cls-7{fill:#d1d1d1;}</style>
        <linearGradient id="Dégradé_sans_nom_28" x1="186.58" y1="259.44" x2="186.58" gradientUnits="userSpaceOnUse"><stop offset="0" stop-color="#1e1a49"/>
            <stop offset="0.14" stop-color="#3a54b4"/>
            <stop offset="0.34" stop-color="#3a54b4"/>
            <stop offset="0.57" stop-color="#3a54b4"/>
            <stop offset="0.82" stop-color="#3a54b4"/>
            <stop offset="1" stop-color="#3a54b4"/>
        </linearGradient>
        <linearGradient id="Dégradé_sans_nom_27" x1="186.58" y1="312.05" x2="186.58" y2="53.55" gradientUnits="userSpaceOnUse">
            <stop offset="0" stop-color="#3a54b4"/>
            <stop offset="1" stop-color="#0e2fa4"/>
        </linearGradient>
    </defs>
    <title>folder-arsp_1</title>
    <g class="cls-1">
        <g id="Calque_2" data-name="Calque 2">
            <g id="Calque_1-2" data-name="Calque 1">
                <path class="cls-2" d="M341.43,76.59V212.32a47.12,47.12,0,0,1-47.12,47.12H78.83a47.11,47.11,0,0,1-47.11-47.12V47.12A47.1,47.1,0,0,1,78.19,0H151c4,.12,17.26,1.42,23.31,13.32,6.13,12.05,15.15,15.42,17.65,16.15H294.31A47.12,47.12,0,0,1,341.43,76.59Z"/>
                <g class="cls-3">
                    <rect class="cls-4" x="31.72" y="53.55" width="309.71" height="258.49" rx="47.03"/>
                </g>
                <rect class="cls-5" x="31.72" y="53.55" width="309.71" height="258.49" rx="47.03"/>
                <!-- <path class="cls-6" d="M222,171.63c-2.35,2.35-4.82,4.86-7.36,7.27-.22.22-1.19,0-1.54-.36-2.05-1.95-4-4-6-6-.37-.37-.77-.74-1-1-10.32,10.3-20.59,20.51-31.07,31l9,8.3c-3.15,3-5.84,5.57-8.35,8l-25.87-25.86c2.44-2.47,5.05-5.13,7.76-7.89,2.92,3,5.84,5.94,8.59,8.72l31.19-31-9-8.21c3.13-3.12,5.82-5.77,8.33-8.24Z"/> -->
                <!-- <path class="cls-6" d="M203.36,231.36l-8.06,8.26a14.72,14.72,0,0,0-1.36-1.75c-1.75-1.78-3.55-3.52-5.3-5.23,2.83-2.74,5.52-5.36,8.26-8C199,226.8,201.25,229.16,203.36,231.36Z"/>
                <path class="cls-6" d="M240.75,191.93a23.21,23.21,0,0,1-4.89,14c-7.48,9.59-22.72,10.91-31.55,2.48-5-4.79-9.84-9.81-14.75-14.71-.22-.24-.4-.51-.6-.74,2.73-2.66,5.4-5.25,8.21-8,1.23,1.21,2.58,2.52,3.92,3.86,3.37,3.39,6.72,6.78,10.1,10.15,6.17,6.15,15,4,17.6-4.29a4,4,0,0,1,.81-1.53c2.69-2.76,5.43-5.49,8.16-8.21a7.44,7.44,0,0,1,.81-.54A12.54,12.54,0,0,1,240.75,191.93Z"/>
                <path class="cls-6" d="M183.52,132.62l-7.69,7.74c-2.22-2.22-4.54-4.53-6.8-6.77l7.79-7.61C179,128.07,181.28,130.4,183.52,132.62Z"/>
                <path class="cls-6" d="M183.79,171.76c-2.73,2.72-5.31,5.32-8,8.05-.4-.35-.88-.76-1.32-1.21-4.25-4.26-8.49-8.54-12.77-12.77-5.59-5.58-13.94-3.9-17.06,3.37a3.54,3.54,0,0,1-.6,1.14c-3.17,3.17-6.37,6.33-9.9,9.83a27.59,27.59,0,0,1-1.57-4.87,21.56,21.56,0,0,1,17.84-24c7.58-1.31,14.11,1,19.52,6.44,4.24,4.3,8.51,8.53,12.75,12.81C183.05,171,183.39,171.35,183.79,171.76Z"/>
                <path class="cls-7" d="M202.9,214.07c-4.83,4.77-9.45,9.76-14.46,14.35-6.37,5.82-13.95,7.37-22.1,4.41a20.27,20.27,0,0,1-13.91-17.15c-.48-3.46.35-7.11.63-10.66a7.39,7.39,0,0,1,.58-1.52c.56.51,1,.83,1.35,1.21,1.81,1.79,3.59,3.63,5.43,5.4a13.47,13.47,0,0,1,3.77,5.84c2.29,7.31,11.44,9.16,17.09,3.66,4.49-4.4,8.94-8.87,13.34-13.36,1-1,1.59-1.16,2.6-.06,1.81,2,3.72,3.83,5.65,5.65C203.72,212.65,203.81,213.19,202.9,214.07Z"/>
                <path class="cls-7" d="M243.58,172.71,218.4,197.88c-2.35-2.39-4.94-5-7.4-7.47,8.39-8.37,16.82-16.81,25.17-25.17C238.58,167.68,241.16,170.28,243.58,172.71Z"/>
                <path class="cls-7" d="M219.32,161.13c-.47-.43-.88-.76-1.25-1.12-1.69-1.69-3.37-3.39-5.08-5.07a12.66,12.66,0,0,1-3.52-5.43c-2.18-7.1-11.31-9.14-16.67-3.93-4.34,4.24-8.71,8.48-13,12.81-1.07,1.08-1.75,1.26-2.84.05-1.78-2-3.73-3.8-5.64-5.66-.71-.69-.89-1.21-.08-2,5-4.84,9.82-9.87,14.94-14.54,7.05-6.46,19.27-6.55,26.81-.6a21.46,21.46,0,0,1,8.55,17A13.51,13.51,0,0,1,219.32,161.13Z"/>
                <path class="cls-7" d="M164.66,173.72q-13.44,13.4-26.84,26.79a1.5,1.5,0,0,1-.4.2l-7.84-8c.32-.36.72-.85,1.17-1.3q12.52-12.56,25.07-25.09c1.5-1.5,1.5-1.5,3.05,0,1.88,1.88,3.74,3.77,5.63,5.65C165.08,172.55,165.38,173,164.66,173.72Z"/> -->
            </g>
        </g>
    </g>
</svg>
